# Blender v3.5.1 OBJ File: 'cena.blend'
# www.blender.org
mtllib chao-verde.mtl
o chao_Cone.002
v -7.821764 -0.155753 -40.468529
v -5.546451 -0.155753 -40.379128
v -3.285165 -0.155753 -40.111488
v -1.051848 -0.155753 -39.667252
v 1.139729 -0.155753 -39.049164
v 3.276056 -0.155753 -38.261032
v 5.343961 -0.155753 -37.307716
v 7.330694 -0.155753 -36.195091
v 9.224009 -0.155753 -34.930019
v 11.012230 -0.155753 -33.520302
v 12.684332 -0.155753 -31.974623
v 14.230009 -0.155753 -30.302521
v 15.639729 -0.155753 -28.514299
v 16.904800 -0.155753 -26.620985
v 18.017426 -0.155753 -24.634253
v 18.970741 -0.155753 -22.566347
v 19.758875 -0.155753 -20.430019
v 20.376963 -0.155753 -18.238443
v 20.821199 -0.155753 -16.005127
v 21.088839 -0.155753 -13.743841
v 21.178236 -0.155753 -11.468527
v 21.088839 -0.155753 -9.193213
v 20.821199 -0.155753 -6.931927
v 20.376963 -0.155753 -4.698610
v 19.758875 -0.155753 -2.507033
v 18.970741 -0.155753 -0.370707
v 18.017426 -0.155753 1.697199
v 16.904800 -0.155753 3.683931
v 15.639729 -0.155753 5.577246
v 14.230009 -0.155753 7.365467
v 12.684332 -0.155753 9.037569
v 11.012230 -0.155753 10.583246
v 9.224009 -0.155753 11.992966
v 7.330694 -0.155753 13.258038
v 5.343961 -0.155753 14.370663
v 3.276056 -0.155753 15.323978
v 1.139729 -0.155753 16.112112
v -1.051848 -0.155753 16.730200
v -3.285165 -0.155753 17.174437
v -5.546451 -0.155753 17.442076
v -7.821764 -0.155753 17.531473
v -10.097078 -0.155753 17.442076
v -12.358364 -0.155753 17.174437
v -14.591681 -0.155753 16.730200
v -16.783258 -0.155753 16.112112
v -18.919584 -0.155753 15.323978
v -20.987490 -0.155753 14.370663
v -22.974222 -0.155753 13.258038
v -24.867537 -0.155753 11.992966
v -26.655758 -0.155753 10.583246
v -28.327860 -0.155753 9.037569
v -29.873537 -0.155753 7.365467
v -31.283257 -0.155753 5.577246
v -32.548328 -0.155753 3.683931
v -33.660954 -0.155753 1.697199
v -34.614269 -0.155753 -0.370707
v -35.402405 -0.155753 -2.507033
v -36.020493 -0.155753 -4.698610
v -36.464729 -0.155753 -6.931927
v -36.732368 -0.155753 -9.193213
v -36.821766 -0.155753 -11.468527
v -36.732368 -0.155753 -13.743841
v -36.464729 -0.155753 -16.005127
v -36.020493 -0.155753 -18.238443
v -35.402405 -0.155753 -20.430019
v -34.614269 -0.155753 -22.566347
v -33.660954 -0.155753 -24.634253
v -32.548328 -0.155753 -26.620985
v -31.283257 -0.155753 -28.514299
v -29.873537 -0.155753 -30.302521
v -28.327860 -0.155753 -31.974623
v -26.655758 -0.155753 -33.520302
v -24.867537 -0.155753 -34.930019
v -22.974222 -0.155753 -36.195091
v -20.987490 -0.155753 -37.307716
v -18.919584 -0.155753 -38.261032
v -16.783258 -0.155753 -39.049164
v -14.591681 -0.155753 -39.667252
v -12.358364 -0.155753 -40.111488
v -10.097078 -0.155753 -40.379128
vt 0.268830 0.489260
vt 0.250000 0.490000
vt 0.231170 0.489260
vt 0.212456 0.487045
vt 0.193973 0.483369
vt 0.175836 0.478254
vt 0.158156 0.471731
vt 0.141042 0.463842
vt 0.124600 0.454634
vt 0.108932 0.444164
vt 0.094132 0.432497
vt 0.080294 0.419706
vt 0.067503 0.405868
vt 0.055836 0.391068
vt 0.045366 0.375400
vt 0.036158 0.358958
vt 0.028269 0.341844
vt 0.021746 0.324164
vt 0.016631 0.306027
vt 0.012955 0.287544
vt 0.010740 0.268830
vt 0.010000 0.250000
vt 0.010740 0.231170
vt 0.012955 0.212456
vt 0.016631 0.193973
vt 0.021746 0.175836
vt 0.028269 0.158156
vt 0.036158 0.141042
vt 0.045366 0.124600
vt 0.055836 0.108932
vt 0.067503 0.094132
vt 0.080294 0.080294
vt 0.094132 0.067503
vt 0.108932 0.055836
vt 0.124600 0.045366
vt 0.141042 0.036158
vt 0.158156 0.028269
vt 0.175836 0.021746
vt 0.193973 0.016631
vt 0.212456 0.012955
vt 0.231170 0.010740
vt 0.250000 0.010000
vt 0.268830 0.010740
vt 0.287544 0.012955
vt 0.306027 0.016631
vt 0.324164 0.021746
vt 0.341844 0.028269
vt 0.358958 0.036158
vt 0.375400 0.045366
vt 0.391068 0.055836
vt 0.405868 0.067503
vt 0.419706 0.080294
vt 0.432497 0.094132
vt 0.444164 0.108932
vt 0.454634 0.124600
vt 0.463842 0.141042
vt 0.471731 0.158156
vt 0.478254 0.175836
vt 0.483369 0.193973
vt 0.487045 0.212456
vt 0.489260 0.231170
vt 0.490000 0.250000
vt 0.489260 0.268830
vt 0.487045 0.287544
vt 0.483369 0.306027
vt 0.478254 0.324164
vt 0.471731 0.341844
vt 0.463842 0.358958
vt 0.454634 0.375400
vt 0.444164 0.391068
vt 0.432497 0.405868
vt 0.419706 0.419706
vt 0.405868 0.432497
vt 0.391068 0.444164
vt 0.375400 0.454634
vt 0.358958 0.463842
vt 0.341844 0.471731
vt 0.324164 0.478254
vt 0.306027 0.483369
vt 0.287544 0.487045
vn 0.0000 1.0000 0.0000
g chao_Cone.002_Material.070
usemtl Material.070
s off
f 2/1/1 1/2/1 80/3/1 79/4/1 78/5/1 77/6/1 76/7/1 75/8/1 74/9/1 73/10/1 72/11/1 71/12/1 70/13/1 69/14/1 68/15/1 67/16/1 66/17/1 65/18/1 64/19/1 63/20/1 62/21/1 61/22/1 60/23/1 59/24/1 58/25/1 57/26/1 56/27/1 55/28/1 54/29/1 53/30/1 52/31/1 51/32/1 50/33/1 49/34/1 48/35/1 47/36/1 46/37/1 45/38/1 44/39/1 43/40/1 42/41/1 41/42/1 40/43/1 39/44/1 38/45/1 37/46/1 36/47/1 35/48/1 34/49/1 33/50/1 32/51/1 31/52/1 30/53/1 29/54/1 28/55/1 27/56/1 26/57/1 25/58/1 24/59/1 23/60/1 22/61/1 21/62/1 20/63/1 19/64/1 18/65/1 17/66/1 16/67/1 15/68/1 14/69/1 13/70/1 12/71/1 11/72/1 10/73/1 9/74/1 8/75/1 7/76/1 6/77/1 5/78/1 4/79/1 3/80/1
